<svg width="234" height="230" viewBox="0 0 234 230" fill="none" xmlns="http://www.w3.org/2000/svg">
<path fill-rule="evenodd" clip-rule="evenodd" d="M233.784 121.003C233.624 124.056 233.343 127.079 232.946 130.065L101.647 0.977852C104.685 0.587145 107.759 0.310999 110.865 0.153971L233.784 121.003ZM90.828 2.88297C93.9698 2.17779 97.1598 1.59698 100.392 1.1461L232.775 131.299C232.316 134.477 231.725 137.613 231.008 140.702L90.828 2.88297ZM225.163 158.786C226.153 156.425 227.065 154.024 227.896 151.587L79.7564 5.94232C77.2775 6.7596 74.8357 7.65629 72.434 8.6293L225.163 158.786ZM71.428 9.04234C68.803 10.1343 66.227 11.3177 63.7041 12.5886L221.136 167.369C222.429 164.889 223.633 162.356 224.743 159.775L71.428 9.04234ZM231.695 92.4624C230.771 87.8898 229.571 83.4148 228.113 79.055L153.531 5.72918C149.097 4.29583 144.545 3.11613 139.894 2.20755L231.695 92.4624ZM138.132 1.87715C133.888 1.11479 129.565 0.577555 125.175 0.278492L233.657 106.934C233.353 102.618 232.807 98.367 232.031 94.195L138.132 1.87715ZM233.94 115C233.94 116.561 233.909 118.116 233.846 119.662L112.229 0.092767C113.801 0.0311178 115.382 0 116.97 0C119.213 0 121.441 0.0620619 123.653 0.184534L233.753 108.43C233.877 110.604 233.94 112.795 233.94 115ZM230.738 141.839C230.022 144.782 229.191 147.682 228.25 150.533L80.8288 5.59447C83.7285 4.66922 86.6779 3.85229 89.6719 3.14856L230.738 141.839ZM217.354 55.935C221.379 62.533 224.75 69.5607 227.38 76.9315L155.691 6.45049C163.188 9.03531 170.336 12.3496 177.047 16.3069L217.354 55.935ZM62.7646 13.0672C60.3064 14.3334 57.8995 15.683 55.5481 17.1122L216.535 175.388C217.989 173.076 219.362 170.709 220.649 168.293L62.7646 13.0672ZM215.987 176.251L54.6701 17.6512C52.6249 18.9189 50.6225 20.2473 48.6655 21.6336L211.936 182.154C213.346 180.23 214.697 178.261 215.987 176.251ZM211.336 182.966L47.8397 22.2239C45.6692 23.7899 43.5557 25.4277 41.5027 27.1338L206.342 189.196C208.077 187.178 209.743 185.1 211.336 182.966ZM180.863 18.6561C194.454 27.3862 206.085 38.8211 214.965 52.1836L180.863 18.6561ZM0.201761 108.189C0.404336 104.779 0.758021 101.409 1.25633 98.0855L134.175 228.765C130.794 229.255 127.366 229.602 123.898 229.802L0.201761 108.189ZM0.130424 109.521L122.543 229.872C120.696 229.957 118.838 230 116.97 230C115.485 230 114.007 229.973 112.536 229.919L0.0825035 119.36C0.0276636 117.913 0 116.46 0 115C0 113.163 0.0437982 111.337 0.130424 109.521ZM0.147487 120.826L111.045 229.855C106.763 229.645 102.542 229.209 98.3942 228.558L1.46686 133.263C0.804944 129.185 0.361111 125.035 0.147487 120.826ZM1.75321 134.947L96.6817 228.276C91.562 227.396 86.5568 226.189 81.6892 224.676L5.41476 149.687C3.87675 144.901 2.64853 139.98 1.75321 134.947ZM6.10632 151.769C8.53454 158.848 11.6447 165.619 15.3599 172.007L58.987 214.899C65.4836 218.551 72.3707 221.609 79.5715 223.997L6.10632 151.769ZM17.4586 175.472C27.0092 190.631 40.0433 203.446 55.4621 212.835L17.4586 175.472ZM5.90448 78.8251C5.05856 81.3368 4.29833 83.8869 3.62719 86.472L145.987 226.434C148.616 225.774 151.21 225.027 153.765 224.195L5.90448 78.8251ZM144.846 226.714L3.34208 87.5939C2.58463 90.6399 1.95058 93.7335 1.44545 96.8693L135.412 228.579C138.601 228.082 141.748 227.459 144.846 226.714ZM6.26356 77.7759C7.2128 75.0464 8.26354 72.3632 9.41134 69.7306L163.015 220.747C160.337 221.876 157.608 222.909 154.832 223.842L6.26356 77.7759ZM34.1201 33.8203C32.4462 35.4715 30.823 37.1725 29.2531 38.9209L194.353 201.24C196.131 199.696 197.861 198.1 199.541 196.455L34.1201 33.8203ZM193.592 201.894L28.5874 39.6686C26.8281 41.662 25.1374 43.7155 23.519 45.8256L187.33 206.877C189.476 205.286 191.565 203.624 193.592 201.894ZM200.252 195.752L34.8351 33.121C36.7382 31.2755 38.7054 29.4937 40.733 27.7791L205.685 189.953C203.941 191.947 202.129 193.881 200.252 195.752ZM186.514 207.477L22.909 46.6281C21.2942 48.7719 19.7534 50.9728 18.2903 53.2273L179.801 212.018C182.094 210.579 184.333 209.064 186.514 207.477ZM171.645 216.69C169.152 217.988 166.606 219.2 164.01 220.323L9.8431 68.7529C10.9846 66.2006 12.2178 63.6969 13.5385 61.2457L171.645 216.69ZM172.574 216.201L14.0358 60.3326C15.2048 58.2094 16.4398 56.1265 17.7381 54.0865L178.927 212.561C176.852 213.837 174.734 215.051 172.574 216.201Z" fill="url(#paint0_linear_37_196)" fill-opacity="0.4"/>
<defs>
<linearGradient id="paint0_linear_37_196" x1="47.1985" y1="25.2193" x2="180.652" y2="211.478" gradientUnits="userSpaceOnUse">
<stop stop-color="#ED7B50"/>
<stop offset="0.541667" stop-color="#488AEA"/>
<stop offset="1" stop-color="#2C2C2C"/>
</linearGradient>
</defs>
</svg>
