<svg width="16" height="16" viewBox="0 0 16 16" fill="none" xmlns="http://www.w3.org/2000/svg">
<path fill-rule="evenodd" clip-rule="evenodd" d="M14.4437 15.0041C14.2537 13.5562 13.6394 12.1272 12.747 10.8704C12.1212 9.96509 11.3776 9.13104 10.5713 8.35134C10.4898 8.57523 10.3654 8.78248 10.2225 8.96365C9.94168 9.31774 9.57809 9.56903 9.19723 9.75679C8.81398 9.94233 8.40481 10.0484 7.98485 10.0774C7.56516 10.1011 7.13338 10.0662 6.69882 9.86332C7.02746 9.52344 7.34638 9.28913 7.66583 9.08121C7.98326 8.87299 8.30298 8.71023 8.61549 8.55486C8.92796 8.40003 9.24537 8.27208 9.56915 8.14072C9.74448 8.06861 9.92123 7.99904 10.1147 7.92122C9.9351 7.75651 9.75371 7.59329 9.56991 7.43339C9.33595 7.23221 9.09768 7.03594 8.85692 6.84205C8.78385 7.12824 8.63489 7.3923 8.45774 7.61669C8.17701 7.97092 7.81345 8.22194 7.43259 8.4097C7.04919 8.59537 6.64002 8.70142 6.2202 8.73027C5.80064 8.75415 5.36873 8.71907 4.9343 8.51638C5.26294 8.17649 5.58172 7.94231 5.90118 7.73412C6.2186 7.52617 6.53832 7.36341 6.85097 7.20792C7.16317 7.05307 7.48059 6.92512 7.80449 6.7939C8.01273 6.70779 8.22277 6.62642 8.46143 6.52895C8.1101 6.25571 7.75252 5.98955 7.38896 5.73074C7.29957 6.10832 7.11249 6.44624 6.85968 6.72554C6.55812 7.07595 6.15824 7.3376 5.7266 7.50266C5.29525 7.671 4.82612 7.73484 4.36984 7.68742C3.91693 7.63513 3.45998 7.49199 3.0963 7.15304C3.5345 6.9385 3.89643 6.79369 4.24818 6.64929L5.24631 6.2572L6.23981 5.87757C6.42039 5.8198 6.59232 5.7408 6.79125 5.67692C6.90638 5.64028 7.01988 5.59676 7.14264 5.55613C6.71234 5.25512 6.27437 4.9639 5.83031 4.68139C5.78304 5.08679 5.56062 5.46283 5.2581 5.7456C4.90186 6.06437 4.45771 6.25789 4.01502 6.34736C3.56946 6.43726 3.12253 6.41599 2.69885 6.30995C2.27767 6.19804 1.8688 6.01494 1.53196 5.66516C1.96907 5.47161 2.34946 5.35949 2.71626 5.2652C3.08027 5.16852 3.42634 5.1092 3.75418 5.03883L4.72445 4.841C5.00005 4.77174 5.28026 4.68852 5.6379 4.56067C5.20683 4.2904 4.76921 4.02948 4.32805 3.77409C4.28222 4.02177 4.14639 4.22324 3.98716 4.38622C3.79804 4.5729 3.56343 4.71055 3.31088 4.783C3.05825 4.85301 2.79036 4.87532 2.53279 4.81737C2.27584 4.76542 2.02811 4.64718 1.82407 4.42878C1.94923 4.33119 2.06199 4.28153 2.17011 4.21852C2.27739 4.15572 2.37991 4.1193 2.47745 4.07031C2.67496 3.99159 2.85441 3.91697 3.03991 3.86905C3.22445 3.81591 3.40949 3.77214 3.61647 3.73701C3.77662 3.71017 3.94367 3.68875 4.1459 3.66945C3.81134 3.47822 3.47368 3.29215 3.13319 3.11099C3.02661 3.25871 2.86588 3.36428 2.70545 3.43649C2.48962 3.53132 2.25635 3.57003 2.03005 3.5662C1.80176 3.56707 1.58078 3.51758 1.37152 3.44281C1.26875 3.39895 1.1673 3.35195 1.0715 3.29338C0.977338 3.22764 0.884521 3.16376 0.801973 3.07584C0.920689 3.04192 1.02926 3.03219 1.13675 3.02062C1.24406 3.00796 1.34756 3.00079 1.44879 3.00007C1.65134 2.98878 1.84506 2.99529 2.0347 2.99499C2.22457 2.99876 2.41046 3.00316 2.60027 3.00071C2.70184 2.99921 2.80349 2.99838 2.91066 2.9926C2.82152 2.94591 1.89035 2.47271 1.53618 2.30722C1.86455 2.4335 2.19002 2.56752 2.51459 2.70431C2.43443 2.58577 2.35371 2.483 2.27381 2.38029C2.15705 2.23073 2.03729 2.0885 1.91549 1.94273C1.79727 1.79467 1.67096 1.64773 1.55312 1.48254C1.49049 1.40324 1.4313 1.31799 1.3741 1.22628C1.31594 1.13489 1.25553 1.04441 1.20777 0.930615C1.32826 0.940076 1.43597 0.972707 1.54616 1.00473C1.65194 1.04301 1.75196 1.09273 1.85038 1.14557C2.0396 1.26198 2.21659 1.40337 2.35873 1.58171C2.5031 1.7559 2.61884 1.96199 2.67968 2.18953C2.72728 2.37493 2.74388 2.58448 2.67794 2.77205C2.82856 2.83634 3.81327 3.28299 4.11919 3.42964C3.95502 3.20712 3.83524 3.03205 3.72919 2.85983C3.61972 2.68099 3.53086 2.51244 3.44943 2.3388C3.36347 2.16778 3.30172 1.98314 3.23119 1.78267C3.20403 1.67741 3.16397 1.57612 3.14058 1.45386C3.11681 1.33116 3.08018 1.21366 3.07139 1.05513C3.37019 1.06542 3.62219 1.174 3.83044 1.33314C4.04341 1.48901 4.20291 1.70548 4.3163 1.94166C4.42794 2.17959 4.4784 2.44657 4.46221 2.71188C4.44191 2.96916 4.36407 3.23659 4.15691 3.44791C4.63662 3.678 5.11234 3.9175 5.58372 4.1657C5.46372 3.89603 5.366 3.69164 5.27662 3.48967C5.15572 3.23681 5.05651 2.99757 4.97208 2.73898C4.88792 2.4804 4.80743 2.20941 4.75802 1.90469C4.70711 1.59822 4.6742 1.27116 4.70249 0.85385C5.11822 0.941824 5.42306 1.15636 5.67809 1.40706C5.92982 1.66182 6.12087 1.96878 6.2377 2.31387C6.35214 2.6585 6.39895 3.04193 6.32523 3.42347C6.25726 3.74844 6.10155 4.07317 5.82987 4.29382C5.85314 4.30634 5.87676 4.31782 5.90003 4.33035C6.34227 4.56853 6.77967 4.8166 7.21222 5.07306C7.19362 4.95699 7.17908 4.848 7.1499 4.7392C7.13065 4.64375 7.11483 4.55291 7.10241 4.46544C7.07893 4.3756 7.05975 4.28962 7.04486 4.206C6.96693 3.8709 6.91342 3.56315 6.83378 3.24304C6.76155 2.92339 6.68871 2.59599 6.62419 2.23642C6.55861 1.875 6.49848 1.49565 6.47275 1.02404C6.93545 1.15602 7.28298 1.44327 7.56333 1.77572C7.84188 2.1122 8.03636 2.5178 8.13784 2.95396C8.24438 3.38782 8.22661 3.86489 8.09186 4.29967C8.05493 4.40861 8.01333 4.51502 7.96782 4.61774C7.91265 4.71915 7.84916 4.81611 7.78479 4.90881C7.75009 4.95442 7.7193 5.00021 7.68182 5.04317C7.6396 5.0844 7.60022 5.12572 7.55436 5.16328C7.52848 5.18608 7.50164 5.20718 7.47543 5.22901C7.92727 5.50215 8.37276 5.78721 8.81201 6.08285C8.79775 5.76322 8.80864 5.48762 8.80209 5.21685L8.82002 4.17767C8.83139 3.83847 8.8426 3.49614 8.86386 3.12745C8.88683 2.7558 8.91437 2.37248 8.98431 1.89862C9.41317 2.13114 9.69393 2.50537 9.88702 2.90613C10.0809 3.31047 10.1673 3.76204 10.156 4.213C10.1456 4.66323 10.0376 5.1173 9.81129 5.51073C9.64747 5.81779 9.41221 6.08741 9.11609 6.28976C9.4099 6.49288 9.70107 6.70024 9.98821 6.91432C10.1855 7.06299 10.3806 7.21555 10.5746 7.36977C10.5639 7.0757 10.5729 6.81752 10.5666 6.56379L10.5848 5.52491C10.5961 5.18529 10.6071 4.84308 10.6286 4.47469C10.6516 4.10276 10.679 3.71956 10.7488 3.24583C11.1778 3.47823 11.4587 3.85234 11.6517 4.25322C11.8456 4.65729 11.9322 5.10915 11.9208 5.55997C11.9102 6.01031 11.8025 6.46441 11.5761 6.85769C11.4146 7.16022 11.1845 7.42673 10.8943 7.62806C11.8532 8.41695 12.7584 9.28467 13.5497 10.2729C13.8147 10.5914 14.0505 10.9354 14.2897 11.2781L14.6196 11.8144C14.7317 11.9922 14.8197 12.1856 14.9205 12.3713C15.1308 12.7873 15.5008 13.4388 15.6523 13.8868C15.6596 13.9085 15.2568 14.281 14.4437 15.0041Z" fill="#C08D5D"/>
</svg>
