<svg width="18" height="39" viewBox="0 0 18 39" fill="none" xmlns="http://www.w3.org/2000/svg">
<path fill-rule="evenodd" clip-rule="evenodd" d="M10.3884 38.5519C8.79206 36.1037 7.86554 33.1345 7.58627 30.067C7.35926 27.8793 7.40428 25.6474 7.61526 23.4169C8.03074 23.6519 8.48972 23.806 8.94297 23.8964C9.83116 24.071 10.7113 23.9822 11.5351 23.7743C12.3595 23.56 13.1199 23.1912 13.7964 22.6912C14.4656 22.1835 15.0768 21.571 15.4735 20.6995C14.5312 20.6083 13.741 20.6652 12.9845 20.7628C12.2306 20.8574 11.5324 21.0241 10.8548 21.1926C10.178 21.362 9.52861 21.5786 8.86514 21.7983C8.5046 21.9158 8.1452 22.039 7.74956 22.1713C7.80831 21.6881 7.87165 21.2049 7.94299 20.7235C8.03685 20.1144 8.14367 19.5073 8.25737 18.9005C8.74114 19.241 9.31152 19.4497 9.87313 19.5614C10.7613 19.7365 11.6411 19.6472 12.4648 19.4394C13.2897 19.225 14.0501 18.8562 14.7261 18.3562C15.3953 17.8489 16.0065 17.236 16.4033 16.3649C15.461 16.2738 14.6712 16.3306 13.9142 16.4279C13.1607 16.5228 12.4625 16.6895 11.7846 16.8581C11.1081 17.027 10.4588 17.2437 9.7953 17.4637C9.36646 17.6026 8.94106 17.7509 8.45118 17.9119C8.62974 17.0412 8.82699 16.1731 9.04293 15.3085C9.67054 15.7669 10.3951 16.0385 11.1432 16.1357C12.0581 16.278 13.007 16.1578 13.8784 15.8497C14.7536 15.5468 15.5502 15.0362 16.1824 14.3729C16.8032 13.7066 17.3117 12.8969 17.4235 11.9102C16.4777 12.1517 15.7387 12.4003 15.0157 12.6364L12.9871 13.3332L10.9818 14.043C10.632 14.1891 10.2676 14.2917 9.8819 14.4522C9.65909 14.5457 9.4298 14.6265 9.1902 14.7238C9.45269 13.7085 9.73959 12.6982 10.0471 11.6932C10.6469 12.2485 11.4748 12.5323 12.3031 12.5704C13.2599 12.5937 14.1874 12.3126 14.9772 11.8751C15.7719 11.4346 16.4239 10.8233 16.9302 10.1131C17.425 9.39721 17.8085 8.58904 17.8653 7.62067C16.9485 7.89261 16.224 8.21489 15.5434 8.5467C14.8639 8.87127 14.2603 9.2294 13.6701 9.5471L11.9368 10.5033C11.4275 10.755 10.8929 10.9914 10.1825 11.2603C10.4862 10.2908 10.8121 9.32704 11.1505 8.36706C11.5427 8.68439 12.0116 8.81482 12.466 8.8564C12.9967 8.8953 13.5327 8.80071 14.0112 8.5837C14.4865 8.36287 14.923 8.04974 15.2393 7.62792C15.5624 7.21601 15.7852 6.71524 15.8112 6.11873C15.4938 6.13246 15.2576 6.20302 15.0111 6.24727C14.7662 6.29074 14.5628 6.36817 14.3507 6.42004C13.9478 6.5562 13.5777 6.67519 13.2332 6.84262C12.8834 7.0009 12.545 7.17406 12.1844 7.38878C11.9059 7.55545 11.6239 7.73929 11.2913 7.97194C11.5511 7.24767 11.8223 6.52721 12.1043 5.81057C12.4587 5.89714 12.8406 5.84947 13.1787 5.75145C13.6304 5.61606 14.0356 5.37272 14.3747 5.07371C14.7231 4.77927 14.9947 4.41771 15.2156 4.03288C15.3148 3.83303 15.4079 3.63013 15.4774 3.41693C15.535 3.19495 15.593 2.97756 15.604 2.7369C15.3793 2.83911 15.2015 2.96497 15.023 3.08664C14.8433 3.2064 14.6765 3.32959 14.5216 3.45964C14.1989 3.70488 13.9127 3.96575 13.6239 4.21099C13.3401 4.46271 13.0631 4.71024 12.7712 4.95243C12.6148 5.08172 12.4591 5.21216 12.2886 5.34221C12.3633 5.15571 13.1634 3.22966 13.4866 2.51912C13.1516 3.1366 12.8311 3.76209 12.5156 4.39063C12.4831 4.10649 12.4721 3.84562 12.4599 3.58588C12.4427 3.20716 12.4397 2.83568 12.4351 2.45619C12.4221 2.07785 12.4229 1.69073 12.387 1.28683C12.379 1.08507 12.358 0.878736 12.3256 0.665155C12.2951 0.45081 12.2691 0.23494 12.1936 0C12.0226 0.170484 11.9013 0.359656 11.7754 0.551117C11.6644 0.746392 11.577 0.951583 11.4961 1.15944C11.3599 1.58165 11.2749 2.02598 11.2909 2.48136C11.2981 2.93332 11.3905 3.39671 11.5942 3.82159C11.7632 4.16523 12.0108 4.50543 12.3553 4.70528C12.21 4.99819 11.2939 6.95323 11.0196 7.57262C10.9796 7.0215 10.9338 6.60006 10.8708 6.20074C10.8044 5.78692 10.7201 5.41544 10.6179 5.04587C10.5259 4.67439 10.3794 4.31359 10.2257 3.91732C10.1299 3.72204 10.0589 3.51609 9.93532 3.29984C9.8117 3.08244 9.71441 2.85627 9.52136 2.60379C9.08032 3.00654 8.83843 3.49816 8.72893 4.01C8.60799 4.52297 8.64729 5.05884 8.78235 5.56495C8.92237 6.07144 9.19325 6.54285 9.56333 6.92539C9.92921 7.29038 10.3958 7.59626 10.986 7.64928C10.5561 8.62069 10.1444 9.60126 9.75066 10.5895C9.58202 10.0238 9.46451 9.58639 9.33747 9.16342C9.19211 8.62222 9.03148 8.12984 8.82317 7.62716C8.61448 7.12486 8.38403 6.60845 8.06241 6.08098C7.74078 5.54893 7.36498 5.00887 6.77858 4.41084C6.26085 5.08324 6.07657 5.80446 6.01514 6.51615C5.96402 7.22974 6.07313 7.9441 6.34478 8.62031C6.61948 9.29271 7.04755 9.93651 7.65647 10.4213C8.18297 10.8274 8.84263 11.1196 9.54311 11.1032C9.52403 11.1524 9.50305 11.2005 9.48397 11.2497C9.12152 12.1848 8.7793 13.1288 8.45538 14.0792C8.33253 13.8786 8.21273 13.694 8.11544 13.4907C8.02044 13.3206 7.9262 13.162 7.8312 13.0128C7.74994 12.8458 7.66715 12.6902 7.58092 12.5437C7.26311 11.9331 6.94378 11.3957 6.64809 10.8057C6.34173 10.226 6.02621 9.63368 5.65613 9.00323C5.28528 8.36859 4.88277 7.71373 4.30782 6.96315C3.77597 7.76331 3.62145 8.65044 3.62794 9.51926C3.64244 10.3919 3.87478 11.2607 4.28836 12.0555C4.69125 12.8534 5.33946 13.556 6.11052 14.0426C6.30854 14.1605 6.51036 14.2684 6.71333 14.3657C6.92928 14.4484 7.15209 14.5136 7.3707 14.5712C7.48287 14.5956 7.58932 14.6254 7.70225 14.6422C7.82014 14.6502 7.93384 14.662 8.05249 14.6597C8.12155 14.6609 8.18984 14.6582 8.25813 14.6574C7.92659 15.6582 7.62022 16.6689 7.33713 17.6876C6.94263 17.183 6.56721 16.778 6.2246 16.3577L4.84424 14.8005C4.38527 14.2993 3.92247 13.7932 3.41009 13.26C2.89121 12.7245 2.35021 12.1772 1.62684 11.5471C1.27736 12.4564 1.33764 13.3893 1.56579 14.249C1.79738 15.1151 2.25406 15.9137 2.8584 16.585C3.46045 17.2563 4.21587 17.807 5.07239 18.1121C5.72137 18.3669 6.43024 18.4721 7.14408 18.3963C6.96171 19.0858 6.78888 19.7784 6.63092 20.476C6.52448 20.9577 6.42643 21.4425 6.33219 21.9284C5.96554 21.4673 5.61569 21.0862 5.29482 20.6923L3.91446 19.1358C3.45511 18.6339 2.9927 18.1277 2.48031 17.5953C1.96105 17.0595 1.42043 16.5122 0.69744 15.8821C0.347581 16.7913 0.40748 17.7242 0.636014 18.5839C0.867218 19.4497 1.3239 20.2491 1.92824 20.9199C2.53067 21.5912 3.28571 22.1423 4.14223 22.4471C4.78167 22.698 5.47872 22.8052 6.18225 22.7354C5.75113 25.1775 5.50428 27.6699 5.58745 30.1982C5.59928 31.0258 5.68856 31.8546 5.77097 32.6856L5.96745 33.9286C6.0285 34.3443 6.14639 34.7524 6.2349 35.1655C6.45682 36.0706 6.74239 37.5408 7.09531 38.4184C7.11244 38.4609 8.21012 38.5055 10.3884 38.5519Z" fill="#C08D5D"/>
</svg>
