<svg width="134" height="26" viewBox="0 0 134 26" fill="none" xmlns="http://www.w3.org/2000/svg" id="logo">
<path d="M14.376 5.704L6.144 25.288H2.568L5.448 18.664L0.12 5.704H3.888L7.32 14.992L10.8 5.704H14.376ZM28.7393 5.704V19H25.3553V17.32C24.9233 17.896 24.3553 18.352 23.6513 18.688C22.9633 19.008 22.2113 19.168 21.3953 19.168C20.3553 19.168 19.4353 18.952 18.6353 18.52C17.8353 18.072 17.2033 17.424 16.7393 16.576C16.2913 15.712 16.0673 14.688 16.0673 13.504V5.704H19.4273V13.024C19.4273 14.08 19.6913 14.896 20.2193 15.472C20.7473 16.032 21.4673 16.312 22.3793 16.312C23.3073 16.312 24.0353 16.032 24.5633 15.472C25.0913 14.896 25.3553 14.08 25.3553 13.024V5.704H28.7393ZM33.7584 4.12C33.1664 4.12 32.6704 3.936 32.2704 3.568C31.8864 3.184 31.6944 2.712 31.6944 2.152C31.6944 1.592 31.8864 1.128 32.2704 0.759999C32.6704 0.375999 33.1664 0.183999 33.7584 0.183999C34.3504 0.183999 34.8384 0.375999 35.2224 0.759999C35.6224 1.128 35.8224 1.592 35.8224 2.152C35.8224 2.712 35.6224 3.184 35.2224 3.568C34.8384 3.936 34.3504 4.12 33.7584 4.12ZM35.4144 5.704V19H32.0544V5.704H35.4144ZM46.6061 19L42.0941 13.336V19H38.7341V1.24H42.0941V11.344L46.5581 5.704H50.9261L45.0701 12.376L50.9741 19H46.6061ZM51.8857 12.304C51.8857 10.96 52.1497 9.768 52.6777 8.728C53.2218 7.688 53.9498 6.888 54.8618 6.328C55.7898 5.768 56.8218 5.488 57.9578 5.488C58.9498 5.488 59.8138 5.688 60.5498 6.088C61.3018 6.488 61.9018 6.992 62.3498 7.6V5.704H65.7338V19H62.3498V17.056C61.9178 17.68 61.3178 18.2 60.5498 18.616C59.7978 19.016 58.9258 19.216 57.9338 19.216C56.8138 19.216 55.7898 18.928 54.8618 18.352C53.9498 17.776 53.2218 16.968 52.6777 15.928C52.1497 14.872 51.8857 13.664 51.8857 12.304ZM62.3498 12.352C62.3498 11.536 62.1898 10.84 61.8698 10.264C61.5498 9.672 61.1178 9.224 60.5738 8.92C60.0298 8.6 59.4458 8.44 58.8218 8.44C58.1978 8.44 57.6218 8.592 57.0938 8.896C56.5658 9.2 56.1338 9.648 55.7978 10.24C55.4778 10.816 55.3178 11.504 55.3178 12.304C55.3178 13.104 55.4778 13.808 55.7978 14.416C56.1338 15.008 56.5658 15.464 57.0938 15.784C57.6378 16.104 58.2138 16.264 58.8218 16.264C59.4458 16.264 60.0298 16.112 60.5738 15.808C61.1178 15.488 61.5498 15.04 61.8698 14.464C62.1898 13.872 62.3498 13.168 62.3498 12.352ZM72.3754 1.24V19H69.0154V1.24H72.3754ZM78.0711 8.272C78.5031 7.52 79.1431 6.896 79.9911 6.4C80.8551 5.888 81.8551 5.632 82.9911 5.632C84.1591 5.632 85.2151 5.912 86.1591 6.472C87.1191 7.032 87.8711 7.824 88.4151 8.848C88.9591 9.856 89.2311 11.032 89.2311 12.376C89.2311 13.704 88.9591 14.888 88.4151 15.928C87.8711 16.968 87.1191 17.776 86.1591 18.352C85.2151 18.928 84.1591 19.216 82.9911 19.216C81.8711 19.216 80.8791 18.968 80.0151 18.472C79.1671 17.96 78.5191 17.328 78.0711 16.576V25.24H75.8871V5.848H78.0711V8.272ZM86.9991 12.376C86.9991 11.384 86.7991 10.52 86.3991 9.784C85.9991 9.048 85.4551 8.488 84.7671 8.104C84.0951 7.72 83.3511 7.528 82.5351 7.528C81.7351 7.528 80.9911 7.728 80.3031 8.128C79.6311 8.512 79.0871 9.08 78.6711 9.832C78.2711 10.568 78.0711 11.424 78.0711 12.4C78.0711 13.392 78.2711 14.264 78.6711 15.016C79.0871 15.752 79.6311 16.32 80.3031 16.72C80.9911 17.104 81.7351 17.296 82.5351 17.296C83.3511 17.296 84.0951 17.104 84.7671 16.72C85.4551 16.32 85.9991 15.752 86.3991 15.016C86.7991 14.264 86.9991 13.384 86.9991 12.376ZM104.106 11.92C104.106 12.336 104.082 12.776 104.034 13.24H93.5218C93.6018 14.536 94.0418 15.552 94.8418 16.288C95.6578 17.008 96.6418 17.368 97.7938 17.368C98.7378 17.368 99.5218 17.152 100.146 16.72C100.786 16.272 101.234 15.68 101.49 14.944H103.842C103.49 16.208 102.786 17.24 101.73 18.04C100.674 18.824 99.3618 19.216 97.7938 19.216C96.5458 19.216 95.4258 18.936 94.4338 18.376C93.4578 17.816 92.6898 17.024 92.1298 16C91.5698 14.96 91.2898 13.76 91.2898 12.4C91.2898 11.04 91.5618 9.848 92.1058 8.824C92.6498 7.8 93.4098 7.016 94.3858 6.472C95.3778 5.912 96.5138 5.632 97.7938 5.632C99.0418 5.632 100.146 5.904 101.106 6.448C102.066 6.992 102.802 7.744 103.314 8.704C103.842 9.648 104.106 10.72 104.106 11.92ZM101.85 11.464C101.85 10.632 101.666 9.92 101.298 9.328C100.93 8.72 100.426 8.264 99.7858 7.96C99.1618 7.64 98.4658 7.48 97.6978 7.48C96.5938 7.48 95.6498 7.832 94.8658 8.536C94.0978 9.24 93.6578 10.216 93.5458 11.464H101.85ZM118.989 11.92C118.989 12.336 118.965 12.776 118.917 13.24H108.405C108.485 14.536 108.925 15.552 109.725 16.288C110.541 17.008 111.525 17.368 112.677 17.368C113.621 17.368 114.405 17.152 115.029 16.72C115.669 16.272 116.117 15.68 116.373 14.944H118.725C118.373 16.208 117.669 17.24 116.613 18.04C115.557 18.824 114.245 19.216 112.677 19.216C111.429 19.216 110.309 18.936 109.317 18.376C108.341 17.816 107.573 17.024 107.013 16C106.453 14.96 106.173 13.76 106.173 12.4C106.173 11.04 106.445 9.848 106.989 8.824C107.533 7.8 108.293 7.016 109.269 6.472C110.261 5.912 111.397 5.632 112.677 5.632C113.925 5.632 115.029 5.904 115.989 6.448C116.949 6.992 117.685 7.744 118.197 8.704C118.725 9.648 118.989 10.72 118.989 11.92ZM116.733 11.464C116.733 10.632 116.549 9.92 116.181 9.328C115.813 8.72 115.309 8.264 114.669 7.96C114.045 7.64 113.349 7.48 112.581 7.48C111.477 7.48 110.533 7.832 109.749 8.536C108.981 9.24 108.541 10.216 108.429 11.464H116.733ZM128.279 5.608C129.879 5.608 131.175 6.096 132.167 7.072C133.159 8.032 133.655 9.424 133.655 11.248V19H131.495V11.56C131.495 10.248 131.167 9.248 130.511 8.56C129.855 7.856 128.959 7.504 127.823 7.504C126.671 7.504 125.751 7.864 125.063 8.584C124.391 9.304 124.055 10.352 124.055 11.728V19H121.871V5.848H124.055V7.72C124.487 7.048 125.071 6.528 125.807 6.16C126.559 5.792 127.383 5.608 128.279 5.608Z" fill="#424242"/>
</svg>
